<!--
 !   The GNU General Public License v3.0
 !
 !   Copyright (C) 2023 Yaroslav Riabtsev <!yaroslav.riabtsev@rwth-aachen.de>
 !
 !   This program is free software: you can redistribute it and/or modify
 !   it under the terms of the GNU General Public License as published by
 !   the Free Software Foundation, either version 3 of the License, or
 !   (at your option) any later version.
 !
 !   This program is distributed in the hope that it will be useful,
 !   but WITHOUT ANY WARRANTY; without even the implied warranty of
 !   MERCHANTABILITY or FITNESS FOR A PARTICULAR PURPOSE.  See the
 !   GNU General Public License for more details.
 !
 !   You should have received a copy of the GNU General Public License
 !   along with this program.  If not, see <!https://www.gnu.org/licenses/>.
-->
<svg xmlns="http://www.w3.org/2000/svg" width="767" height="1248">
    <path style="opacity:1" fill="#d2b79f" d="M0 0h767v1248H0z"/>
    <path style="opacity:1" fill="#271b16" d="M-.5-.5h27c1.68 46.16 3.346 92.327 5 138.5a773.033 773.033 0 0 1-4 68.5c-3.002 17.516-8.168 34.516-15.5 51a95.455 95.455 0 0 0-3.5 18c-.358 13.501 1.976 26.501 7 39 .721 9.332 3.555 17.998 8.5 26a696.436 696.436 0 0 0 23 27 72.374 72.374 0 0 1 8 14 2211.002 2211.002 0 0 1 14 51 11714.026 11714.026 0 0 0 53 229 809.635 809.635 0 0 1 10.5 118 968.133 968.133 0 0 0 2.5 90c.189 4.267 1.023 8.267 2.5 12 0 .667.333 1 1 1a210.464 210.464 0 0 1 5.5 28c.167 21.332 0 42.665-.5 64v11a737.242 737.242 0 0 1-10.5 69c-12.645 64.39-25.479 128.73-38.5 193.5h-95V-.5z"/>
    <path style="opacity:1" fill="#b7987e" d="M26.5-.5h71a2326.486 2326.486 0 0 1-4.5 68 175.087 175.087 0 0 1-10 41 695.248 695.248 0 0 0-47 101c-3.707 1.394-6.54.394-8.5-3a773.033 773.033 0 0 0 4-68.5c-1.654-46.173-3.32-92.34-5-138.5z"/>
    <path style="opacity:1" fill="#c9b39e" d="M97.5-.5h20c3.862 40.924.696 81.257-9.5 121-6.352 21.375-16.352 40.708-30 58-.428 2.573-.094 4.906 1 7-8.59 3.129-16.257 7.796-23 14a4.932 4.932 0 0 0-.5 3h4c-6.267 4.478-12.6 8.978-19 13.5-5.121 4.74-8.288 10.573-9.5 17.5-.5 7.659-.666 15.326-.5 23a241.897 241.897 0 0 0-22 19 95.455 95.455 0 0 1 3.5-18c7.332-16.484 12.498-33.484 15.5-51 1.96 3.394 4.793 4.394 8.5 3a695.248 695.248 0 0 1 47-101 175.087 175.087 0 0 0 10-41 2326.486 2326.486 0 0 0 4.5-68z"/>
    <path style="opacity:1" fill="#ddcab8" d="M117.5-.5h577c27.26 18.488 43.427 44.154 48.5 77 3.133 27.826 2.966 55.493-.5 83a1988.728 1988.728 0 0 1-.5-68c-.768-6.7-2.602-13.032-5.5-19-3.713-2.365-7.713-3.198-12-2.5a95.613 95.613 0 0 1-11 16 54.804 54.804 0 0 1-14 4c-6.267 1.934-10.101 6.1-11.5 12.5-1.416 29.25-2.75 29.25-4 0-1.789-1.729-3.956-2.396-6.5-2 .697 13.697 1.53 27.364 2.5 41-20.29 12.199-42.124 17.366-65.5 15.5-3.566-.7-6.4-2.533-8.5-5.5 2.48 15.56-2.02 28.727-13.5 39.5-25.969 17.979-43.469 42.145-52.5 72.5a765.443 765.443 0 0 1-21 79c-7.289 23.287-21.789 40.453-43.5 51.5a91.953 91.953 0 0 1-18 5 75.817 75.817 0 0 1-23 12l-11 .5c-4.065-.011-7.732-.678-11-2a507.166 507.166 0 0 1 44-29.5 6.978 6.978 0 0 0 2.5-3.5c.498-2.982.665-5.982.5-9 .979 3.125 1.312 6.458 1 10 7.326-1.297 8.826-4.963 4.5-11a20.093 20.093 0 0 1-1.5-6 32.462 32.462 0 0 1 8 .5 86.216 86.216 0 0 0 3 9.5c8.181-9.423 17.848-16.923 29-22.5 2.21-1.509 4.043-3.342 5.5-5.5a8540.523 8540.523 0 0 0 17-80c7.778-35.557 21.112-68.89 40-100v-32c2.12-9.782 7.954-15.948 17.5-18.5 9.028-.298 18.028.202 27 1.5 13.48-.657 23.312-6.991 29.5-19a497.685 497.685 0 0 0 6-31c2.599-5.865 6.599-10.531 12-14 4.443 7.118 10.609 11.951 18.5 14.5 4.238.823 8.238.156 12-2 7.749-6 11.915-13.834 12.5-23.5-5.924-7.976-13.757-10.809-23.5-8.5-7.412 3.621-15.079 4.621-23 3a172.318 172.318 0 0 1-18-13 43.361 43.361 0 0 0-8-2 493.355 493.355 0 0 1-42-2c-4.795-1.777-8.795-4.777-12-9-5.07-2.424-10.403-3.09-16-2-13.126 5.126-23.959 13.293-32.5 24.5-12.564 17.19-17.564 36.523-15 58a30.381 30.381 0 0 1-3.5 11c-6.875.502-12.708 3.169-17.5 8a331.835 331.835 0 0 0-8 27c-2.075 4.079-4.908 7.579-8.5 10.5-19.297 5.127-29.63 17.627-31 37.5-16.077 5.91-25.91 17.244-29.5 34a84.338 84.338 0 0 0-10 12c.631 5.62.964 11.287 1 17-3.368 4.094-6.202 8.427-8.5 13-5.502-5.643-12.168-7.477-20-5.5l-9 3a744.002 744.002 0 0 1-32 17.5c-1.122-1.788-1.289-3.788-.5-6a497.131 497.131 0 0 0 24-18c2.619-3.712 3.119-7.712 1.5-12 6.116-1.384 10.782-4.717 14-10a393.275 393.275 0 0 0 4.5-19 94.305 94.305 0 0 0 9-16c5.732-22.79 15.232-43.79 28.5-63 1.159-3.622 1.325-7.289.5-11-13.735-14.901-23.568-12.568-29.5 7a380.698 380.698 0 0 1-77 2 227.148 227.148 0 0 0-30 2 37.312 37.312 0 0 1-6-1 4.933 4.933 0 0 0-2.5 1 176.05 176.05 0 0 1-2.5 8 429.937 429.937 0 0 1-2-12c-1.545-.952-3.212-1.285-5-1a321.731 321.731 0 0 1-3.5 42 2904.992 2904.992 0 0 0-14 92 951.307 951.307 0 0 1-4 56c-4.801 22.112-15.634 40.612-32.5 55.5a59.353 59.353 0 0 1-19-1c-.928-.388-1.595-1.055-2-2a143.032 143.032 0 0 0 14-40c-2.259-8.299-7.593-11.133-16-8.5-11.78 13.666-26.78 21.166-45 22.5-11.413 1.851-22.079-.149-32-6-2.7-1.857-4.366-4.357-5-7.5 6.745-3.58 11.078-9.08 13-16.5a328.232 328.232 0 0 0-11-27.5c1.312-3.504 3.312-6.67 6-9.5a409.904 409.904 0 0 1 26-13l5.5-5.5c-3.634-16.069-8.801-31.736-15.5-47-2.708-1.936-5.708-2.436-9-1.5A307.968 307.968 0 0 1 91 217.5c-2.575.41-4.242-.59-5-3l-1-17c-1.82-3.491-4.654-4.657-8.5-3.5l-17 8.5h-4a4.932 4.932 0 0 1 .5-3c6.743-6.204 14.41-10.871 23-14-1.094-2.094-1.428-4.427-1-7 13.648-17.292 23.648-36.625 30-58 10.196-39.743 13.362-80.076 9.5-121z"/>
    <path style="opacity:1" fill="#ddcab8" d="M459.5 367.5a42.302 42.302 0 0 0-3.5-8 2771.193 2771.193 0 0 0-13.5-17c-.059-4.048 1.608-7.215 5-9.5a5575.126 5575.126 0 0 1 18-10c7.093-3.619 9.26-9.119 6.5-16.5a562.115 562.115 0 0 0-32.5-46.5c-8.633.931-16.3 4.264-23 10-4.295 3.163-8.962 4.33-14 3.5-4.266-4.456-6.599-9.789-7-16 2.298-4.573 5.132-8.906 8.5-13a161.374 161.374 0 0 0-1-17 84.338 84.338 0 0 1 10-12c3.59-16.756 13.423-28.09 29.5-34 1.37-19.873 11.703-32.373 31-37.5 3.592-2.921 6.425-6.421 8.5-10.5a331.835 331.835 0 0 1 8-27c4.792-4.831 10.625-7.498 17.5-8a30.381 30.381 0 0 0 3.5-11c-2.564-21.477 2.436-40.81 15-58 8.541-11.207 19.374-19.374 32.5-24.5 5.597-1.09 10.93-.424 16 2 3.205 4.223 7.205 7.223 12 9a493.355 493.355 0 0 0 42 2 43.361 43.361 0 0 1 8 2 172.318 172.318 0 0 0 18 13c7.921 1.621 15.588.621 23-3 9.743-2.309 17.576.524 23.5 8.5-.585 9.666-4.751 17.5-12.5 23.5-3.762 2.156-7.762 2.823-12 2-7.891-2.549-14.057-7.382-18.5-14.5-5.401 3.469-9.401 8.135-12 14a497.685 497.685 0 0 1-6 31c-6.188 12.009-16.02 18.343-29.5 19a152.963 152.963 0 0 0-27-1.5c-9.546 2.552-15.38 8.718-17.5 18.5v32c-18.888 31.11-32.222 64.443-40 100a8540.523 8540.523 0 0 1-17 80c-1.457 2.158-3.29 3.991-5.5 5.5-11.152 5.577-20.819 13.077-29 22.5a86.216 86.216 0 0 1-3-9.5 32.462 32.462 0 0 0-8-.5 20.093 20.093 0 0 0 1.5 6c4.326 6.037 2.826 9.703-4.5 11 .312-3.542-.021-6.875-1-10z"/>
    <path style="opacity:1" fill="#c49e84" d="M615.5 797.5a1147.259 1147.259 0 0 0-44.5-79 210.768 210.768 0 0 1-7.5-18 84.01 84.01 0 0 1 8 7.5 4.934 4.934 0 0 0 3 .5 188.188 188.188 0 0 1-6-26c.424-10.648.59-21.314.5-32a639.17 639.17 0 0 0 4.5-41.5c-2.622-26.49-.789-52.656 5.5-78.5a508.03 508.03 0 0 1 16-52A1869.344 1869.344 0 0 0 606.5 348a1799.15 1799.15 0 0 1-3-56c-.832-25.498 6.002-48.664 20.5-69.5 3.563-9.44.396-12.94-9.5-10.5-6.341 1.675-10.841 5.508-13.5 11.5a83.019 83.019 0 0 0-4 15 7174.624 7174.624 0 0 0-4.5 47 1184.348 1184.348 0 0 1-4-42 8.43 8.43 0 0 0-4 .5 47.02 47.02 0 0 1-3.5 5.5c-6.053-5.063-7.053-11.063-3-18a790.87 790.87 0 0 1 32-35c10.565-26.577 21.232-26.577 32 0 3.096 6.706 4.429 13.706 4 21a369.615 369.615 0 0 0-19 86 4858.304 4858.304 0 0 1-3.5 95.5 406.706 406.706 0 0 0 1.5 35.5 57.26 57.26 0 0 0 5 19c3.493 13.076 3.327 26.076-.5 39 9.411-.426 16.244 3.574 20.5 12a79.315 79.315 0 0 1 6 24c.893 26.689.56 53.356-1 80-3.374 16.573-9.874 31.74-19.5 45.5-1.759.798-3.426.631-5-.5a148.386 148.386 0 0 0-10-10.5c-12.864-.77-17.03 5.063-12.5 17.5 4.517 8.061 7.184 16.728 8 26a40.943 40.943 0 0 1 5 7 382.936 382.936 0 0 0-2 27c1.256 3.516 3.256 6.516 6 9 .918 7.678 1.918 15.344 3 23a822.745 822.745 0 0 1 17.5 80.5l-1 3.5a423.662 423.662 0 0 0-29-39z"/>
    <path style="opacity:1" fill="#4e4c53" d="M104.5 282.5c-2.256-1.423-4.756-2.09-7.5-2-6.866 1.219-13.7 1.219-20.5 0a82.556 82.556 0 0 0 3-15 46.864 46.864 0 0 1 9 2c.193-7.385 2.86-13.719 8-19a146.018 146.018 0 0 0-35.5-11 17.9 17.9 0 0 0-7.5 1.5 100.844 100.844 0 0 0-5 7.5v-3a4.934 4.934 0 0 1-3-.5c-1.984-2.134-3.318-4.634-4-7.5a18.329 18.329 0 0 0-6-4 146.7 146.7 0 0 0-1.5 17c-.387 3.099-1.554 5.766-3.5 8-.166-7.674 0-15.341.5-23 1.212-6.927 4.379-12.76 9.5-17.5 6.4-4.522 12.733-9.022 19-13.5l17-8.5c3.846-1.157 6.68.009 8.5 3.5l1 17c.758 2.41 2.425 3.41 5 3a307.968 307.968 0 0 0 26.5-11.5c3.292-.936 6.292-.436 9 1.5 6.699 15.264 11.866 30.931 15.5 47l-5.5 5.5a409.904 409.904 0 0 0-26 13c-2.688 2.83-4.688 5.996-6 9.5z"/>
    <path style="opacity:1" fill="#9f745c" d="M563.5 700.5a52460.453 52460.453 0 0 0-13.5-33 840.27 840.27 0 0 1-.5-41c-.322-5.858.011-11.525 1-17 1.415-8.461 2.081-17.128 2-26 2.65-34.651 5.15-69.317 7.5-104a930.035 930.035 0 0 0 0-61c-.232-1.237-.732-2.237-1.5-3a175.728 175.728 0 0 1 7.5-44 1413.946 1413.946 0 0 0 26.5-86 7174.624 7174.624 0 0 1 4.5-47 83.019 83.019 0 0 1 4-15c2.659-5.992 7.159-9.825 13.5-11.5 9.896-2.44 13.063 1.06 9.5 10.5-14.498 20.836-21.332 44.002-20.5 69.5a1799.15 1799.15 0 0 0 3 56A1869.344 1869.344 0 0 1 595 478.5a508.03 508.03 0 0 0-16 52c-6.289 25.844-8.122 52.01-5.5 78.5a639.17 639.17 0 0 1-4.5 41.5 663.645 663.645 0 0 1-.5 32 188.188 188.188 0 0 0 6 26 4.934 4.934 0 0 1-3-.5 84.01 84.01 0 0 0-8-7.5z"/>
    <path style="opacity:1" fill="#bc9d82" d="M310.5 336.5c.177 4.208 1.51 7.874 4 11a1685.275 1685.275 0 0 0 25 49h3c-1.713.723-2.713 2.057-3 4 .818 2.795 2.485 4.962 5 6.5 27.011 15.781 56.011 21.114 87 16 15.4-2.932 30.4-6.932 45-12-16.177 19.427-36.843 31.093-62 35-41.526 6.882-79.859-1.118-115-24-9.025-5.576-16.858-12.409-23.5-20.5-12.803-19.717-22.136-41.05-28-64a156.422 156.422 0 0 1 0-25 367.441 367.441 0 0 1 10-41 148.422 148.422 0 0 0 3.5-33 155.867 155.867 0 0 0 15-2.5c2.249-1.745 3.916-3.912 5-6.5 8.947 6.257 14.113 14.924 15.5 26a501.987 501.987 0 0 0 5 36l1 40c1.33 3.507 3.83 5.173 7.5 5z"/>
    <path style="opacity:1" fill="#23211d" d="M48.5 246.5c-2.236 2.755-2.902 5.755-2 9 20.166 5.168 19.833 7.668-1 7.5-3.573 5.723-5.74 11.889-6.5 18.5a122.028 122.028 0 0 0 24 9c6.372-.88 10.872-4.213 13.5-10 6.8 1.219 13.634 1.219 20.5 0 2.744-.09 5.244.577 7.5 2a328.232 328.232 0 0 1 11 27.5c-1.922 7.42-6.255 12.92-13 16.5a855.18 855.18 0 0 1-31.5 18c-3.19-1.175-5.857-3.175-8-6A271.897 271.897 0 0 0 49.5 315c-1.865-1.301-3.865-1.635-6-1-2.32 2.478-3.986 5.311-5 8.5-2.59 4.793-6.59 6.627-12 5.5a104.981 104.981 0 0 0-11-13.5c-5.024-12.499-7.358-25.499-7-39 7-6.816 14.334-13.149 22-19 1.946-2.234 3.113-4.901 3.5-8a146.7 146.7 0 0 1 1.5-17 18.329 18.329 0 0 1 6 4c.682 2.866 2.016 5.366 4 7.5a4.934 4.934 0 0 0 3 .5v3z"/>
    <path style="opacity:1" fill="#9599a3" d="M76.5 280.5c-2.628 5.787-7.128 9.12-13.5 10a122.028 122.028 0 0 1-24-9c.76-6.611 2.927-12.777 6.5-18.5 20.833.168 21.166-2.332 1-7.5-.902-3.245-.236-6.245 2-9a100.844 100.844 0 0 1 5-7.5 17.9 17.9 0 0 1 7.5-1.5 146.018 146.018 0 0 1 35.5 11c-5.14 5.281-7.807 11.615-8 19a46.864 46.864 0 0 0-9-2 82.556 82.556 0 0 1-3 15z"/>
    <path style="opacity:1" fill="#444247" d="M395.5 257.5c.401 6.211 2.734 11.544 7 16 5.038.83 9.705-.337 14-3.5 6.7-5.736 14.367-9.069 23-10a562.115 562.115 0 0 1 32.5 46.5c2.76 7.381.593 12.881-6.5 16.5a5575.126 5575.126 0 0 0-18 10c-3.392 2.285-5.059 5.452-5 9.5-4.254-5.42-8.254-5.253-12 .5-5.899.56-10.899-1.44-15-6a4.934 4.934 0 0 0-3-.5c5.228-5.534 7.728-12.2 7.5-20a47.478 47.478 0 0 1 4.5-8 215.118 215.118 0 0 0-29.5-9c-2.981.157-5.648 1.157-8 3a63.537 63.537 0 0 1-3.5 11 557.008 557.008 0 0 0-.5-15c-9.04-6.865-15.707-5.199-20 5a42.479 42.479 0 0 0 0 13c1.183 1.231 2.349 1.231 3.5 0l5-7c2.243.912 3.243 2.578 3 5-2.497 5.67-5.997 10.67-10.5 15-.818 5.849-.652 11.515.5 17-.06.543-.393.876-1 1a182.468 182.468 0 0 1-1.5-19c-6.947-6.378-15.114-10.378-24.5-12 1.089-3.578 1.255-7.245.5-11a121.345 121.345 0 0 0-7-13 33.47 33.47 0 0 1-2.5-10c-.026-4.623 1.974-7.956 6-10a744.002 744.002 0 0 0 32-17.5l9-3c7.832-1.977 14.498-.143 20 5.5z"/>
    <path style="opacity:1" fill="#a3a4aa" d="M412.5 336.5c-1.974 1.928-3.474 4.261-4.5 7-.511 4.895-2.011 9.395-4.5 13.5a68.026 68.026 0 0 1-13-1 176.797 176.797 0 0 1-19-12c-3.114-1.087-5.447-.254-7 2.5-1.152-5.485-1.318-11.151-.5-17 4.503-4.33 8.003-9.33 10.5-15 .243-2.422-.757-4.088-3-5l-5 7c-1.151 1.231-2.317 1.231-3.5 0a42.479 42.479 0 0 1 0-13c4.293-10.199 10.96-11.865 20-5 .237 5.092.404 10.092.5 15a63.537 63.537 0 0 0 3.5-11c2.352-1.843 5.019-2.843 8-3a215.118 215.118 0 0 1 29.5 9 47.478 47.478 0 0 0-4.5 8c.228 7.8-2.272 14.466-7.5 20z"/>
    <path style="opacity:1" fill="#b19178" d="M15.5 314.5a104.981 104.981 0 0 1 11 13.5c5.41 1.127 9.41-.707 12-5.5 2.793.246 5.793.413 9 .5a11.532 11.532 0 0 1 4.5 3.5 56.63 56.63 0 0 1 5 19 11.529 11.529 0 0 0 3.5 4.5 314.383 314.383 0 0 1 22 4c6.658 5.83 14.325 9.83 23 12 13.125 2.145 26.125 1.478 39-2a377.53 377.53 0 0 1 26-7 213.442 213.442 0 0 1-21 21.5c-9.759 3.588-17.259 9.921-22.5 19-4.203 10.587-10.036 20.087-17.5 28.5a64.236 64.236 0 0 1-22 4c3.922 3.251 7.088 7.084 9.5 11.5a117.61 117.61 0 0 1 4 25 44.96 44.96 0 0 0 5.5 13 49.18 49.18 0 0 0-3.5 9 96.616 96.616 0 0 0 1 26c7.375 2.851 13.708 7.184 19 13a63.533 63.533 0 0 1 5 18c4.655-4.533 8.322-3.867 11 2a280.22 280.22 0 0 0 5 23l11 15a108.365 108.365 0 0 1 8 18 821.323 821.323 0 0 1 10 51c1.969 8.914 5.303 17.247 10 25a357.381 357.381 0 0 1 1.5 33.5 1410.24 1410.24 0 0 0-.5 77.5c.425 13.495 2.092 21.5 5 40a348.607 348.607 0 0 1 13 34c4.476 12.832 13.309 19.999 26.5 21.5 4.339-12.211 5.506-24.711 3.5-37.5-2.35-4.27-5.85-7.27-10.5-9-4.72-5.444-6.22-11.777-4.5-19 2.125-8.5 3.625-10.503 4.5-16a70.523 70.523 0 0 1-9-1.5c-1.458-2.077-2.124-4.41-2-7a789.226 789.226 0 0 1 8.5-30.5c8.626-4.935 16.126-3.601 22.5 4a60.631 60.631 0 0 1 4.5 8 117.964 117.964 0 0 1 5 18 752.507 752.507 0 0 1 9 81 71.512 71.512 0 0 0 6 18 2251.114 2251.114 0 0 0 52 61 327.622 327.622 0 0 0 21.5 20.5c4.128.398 7.794 1.898 11 4.5 1.032 5.1 3.032 9.766 6 14a456.195 456.195 0 0 0 23.5 2c5.171.514 9.338-1.153 12.5-5 1.044-4.707 1.21-9.374.5-14a293.771 293.771 0 0 1 19-6c.087-5.392.253-10.726.5-16a62.85 62.85 0 0 0 14 3.5 1823.677 1823.677 0 0 0 31 3 14.293 14.293 0 0 1 2.5 6.5 137.778 137.778 0 0 0 11.5 16.5c7.207 6.054 15.54 8.887 25 8.5l-5 2a1691.951 1691.951 0 0 0-105 22c-3.421-2.28-7.254-3.62-11.5-4-12.01 2-24.01 4-36 6-14.378-.38-22.378-7.71-24-22-3.336-3.355-7.502-4.855-12.5-4.5l-1.5-1.5a195.086 195.086 0 0 1-2-26 20.64 20.64 0 0 0-2-6 110.86 110.86 0 0 1-17.5-13 523.555 523.555 0 0 0-13-17.5 36.677 36.677 0 0 0-12-8 28979.63 28979.63 0 0 1-17-5 7481.931 7481.931 0 0 1-22-14 80.601 80.601 0 0 0-17.5-3.5c-6.306-8.944-11.306-18.611-15-29a1309.527 1309.527 0 0 0-22-68c.365-9.652.365-19.319 0-29a51.747 51.747 0 0 0-6-17c-.19-12.848.31-25.688 1.5-38.5 1.029-14.591-3.638-26.925-14-37-.949-.617-1.782-.451-2.5.5a15.256 15.256 0 0 1-1.5 4.5c-.832.688-1.498.521-2-.5a85.624 85.624 0 0 0-5.5-15c1.833 38.658 3.833 77.325 6 116 .526 26.5 1.026 64.667 1.5 97-.667 0-1-.333-1-1a495.957 495.957 0 0 1-3.5-42c-.168-27.5-.668-40.171-1.5-60a809.635 809.635 0 0 0-10.5-118 11714.026 11714.026 0 0 1-53-229 2211.002 2211.002 0 0 0-14-51 72.374 72.374 0 0 0-8-14 696.436 696.436 0 0 1-23-27c-4.945-8.002-7.779-16.668-8.5-26z"/>
    <path style="opacity:1" fill="#242220" d="M337.5 316.5c9.386 1.622 17.553 5.622 24.5 12 .169 6.359.669 12.693 1.5 19 .607-.124.94-.457 1-1 1.553-2.754 3.886-3.587 7-2.5a176.797 176.797 0 0 0 19 12 68.026 68.026 0 0 0 13 1c2.489-4.105 3.989-8.605 4.5-13.5 1.026-2.739 2.526-5.072 4.5-7a4.934 4.934 0 0 1 3 .5c4.101 4.56 9.101 6.56 15 6 3.746-5.753 7.746-5.92 12-.5a2771.193 2771.193 0 0 1 13.5 17 42.302 42.302 0 0 1 3.5 8 40.914 40.914 0 0 1-.5 9 6.978 6.978 0 0 1-2.5 3.5 507.166 507.166 0 0 0-44 29.5c-3.816 2.264-7.483 1.764-11-1.5a193.026 193.026 0 0 1-16.5-24.5c-4.637-5.829-10.137-6.662-16.5-2.5a172.54 172.54 0 0 1-26 15.5h-3a1685.275 1685.275 0 0 1-25-49 60.48 60.48 0 0 1-3-12c7.239-8.286 15.906-14.62 26-19z"/>
    <path style="opacity:1" fill="#c4a58c" d="M149.5 378.5a952.262 952.262 0 0 0-14.5 40 2164.015 2164.015 0 0 0 3 70c2.451 10.443 7.451 19.443 15 27l7 14a873.506 873.506 0 0 1 16 56c3.909 13.824 10.409 26.157 19.5 37a3.647 3.647 0 0 0 1.5-1c5.917-25.339 7.917-51.005 6-77a995.098 995.098 0 0 1-3.5-62c.172-29.693 5.672-58.36 16.5-86 3.259-6.538 8.426-10.538 15.5-12a21.341 21.341 0 0 1-1.5 9l-8.5 17c-1.333 4-1.333 8 0 12a261.362 261.362 0 0 1 7.5 21 519.327 519.327 0 0 0 26 83 137.415 137.415 0 0 1 14 28c2.06 13.659 4.06 27.326 6 41 1.618 6.572 4.784 12.239 9.5 17a7.248 7.248 0 0 1-2 2.5c-7.44.354-14.607 1.854-21.5 4.5-2.928 35.005-.094 69.505 8.5 103.5a113.172 113.172 0 0 0-8 17.5 81.225 81.225 0 0 0-.5 22 400.205 400.205 0 0 1 9 33 591.583 591.583 0 0 0 4 39c6.726 33.199 25.559 56.199 56.5 69-.133 7.438 2.2 13.938 7 19.5a172.357 172.357 0 0 1 27 4.5 171.278 171.278 0 0 1 10.5-14c8.145-6.971 14.978-14.971 20.5-24a42.769 42.769 0 0 0-9-1.5 18.099 18.099 0 0 1-2-5.5 270.776 270.776 0 0 1 8.5-28 49.555 49.555 0 0 0 1.5-13 192.033 192.033 0 0 1 35 10.5 129.21 129.21 0 0 1 15.5 10.5 106.556 106.556 0 0 0 19 28c7.504 9.622 11.337 20.622 11.5 33 3.423-.372 5.923.961 7.5 4a387.974 387.974 0 0 1 4 17 6.978 6.978 0 0 0 2.5 3.5 11.333 11.333 0 0 0-3.5 1.5c-.584 2.757-.25 5.423 1 8a40.943 40.943 0 0 1 5 7c.017-4.393.85-8.56 2.5-12.5 3.12-.359 5.62.808 7.5 3.5 5.834 8.336 7.001 17.336 3.5 27l1 3c3.308 2.65 6.975 4.312 11 5a228.222 228.222 0 0 1-21 3c-9.46.387-17.793-2.446-25-8.5a137.778 137.778 0 0 1-11.5-16.5 14.293 14.293 0 0 0-2.5-6.5 1823.677 1823.677 0 0 1-31-3 62.85 62.85 0 0 1-14-3.5 522.098 522.098 0 0 0-.5 16 293.771 293.771 0 0 0-19 6c.71 4.626.544 9.293-.5 14-3.162 3.847-7.329 5.514-12.5 5a456.195 456.195 0 0 1-23.5-2c-2.968-4.234-4.968-8.9-6-14-3.206-2.602-6.872-4.102-11-4.5a327.622 327.622 0 0 1-21.5-20.5 2251.114 2251.114 0 0 1-52-61 71.512 71.512 0 0 1-6-18 752.507 752.507 0 0 0-9-81 117.964 117.964 0 0 0-5-18 60.631 60.631 0 0 0-4.5-8c-6.374-7.601-13.874-8.935-22.5-4a789.226 789.226 0 0 0-8.5 30.5c-.124 2.59.542 4.923 2 7a70.523 70.523 0 0 0 9 1.5c-.875 5.497-2.375 7.5-4.5 16-1.72 7.223-.22 13.556 4.5 19 4.65 1.73 8.15 4.73 10.5 9 2.006 12.789.839 25.289-3.5 37.5-13.191-1.501-22.024-8.668-26.5-21.5a348.607 348.607 0 0 0-13-34c-2.908-18.5-4.575-26.505-5-40a1410.24 1410.24 0 0 1 .5-77.5 357.381 357.381 0 0 0-1.5-33.5c-4.697-7.753-8.031-16.086-10-25a821.323 821.323 0 0 0-10-51 108.365 108.365 0 0 0-8-18l-11-15a280.22 280.22 0 0 1-5-23c-2.678-5.867-6.345-6.533-11-2a63.533 63.533 0 0 0-5-18c-5.292-5.816-11.625-10.149-19-13a96.616 96.616 0 0 1-1-26 49.18 49.18 0 0 1 3.5-9 44.96 44.96 0 0 1-5.5-13 117.61 117.61 0 0 0-4-25c-2.412-4.416-5.578-8.249-9.5-11.5a64.236 64.236 0 0 0 22-4c7.464-8.413 13.297-17.913 17.5-28.5 5.241-9.079 12.741-15.412 22.5-19z"/>
    <path style="opacity:1" fill="#23211d" d="M558.5 415.5c.768.763 1.268 1.763 1.5 3a930.035 930.035 0 0 1 0 61 12019.25 12019.25 0 0 1-7.5 104c-1.415 8.461-2.081 17.128-2 26-.989 5.475-1.322 11.142-1 17a714.114 714.114 0 0 0-1.5 38 21.53 21.53 0 0 1-5-6 208.195 208.195 0 0 1-13-24c-1.049-2.118-2.549-3.784-4.5-5-4.88-9.446-8.38-19.446-10.5-30a249.226 249.226 0 0 1 4-57 722.49 722.49 0 0 1 31-123c2.228-2.578 5.061-3.911 8.5-4z"/>
    <path style="opacity:1" fill="#a38168" d="M386.5 1017.5a395.177 395.177 0 0 1-85 14 400.179 400.179 0 0 1-21-2.5c-12.706-4.36-25.373-8.69-38-13a227.233 227.233 0 0 1-37-24 690.652 690.652 0 0 1-38-23c-7.5-6.167-14.333-13-20.5-20.5-.206 8.936-1.373 17.603-3.5 26 .5-21.335.667-42.668.5-64a210.464 210.464 0 0 0-5.5-28c-.474-32.333-.974-70.5-1.5-97a13518.722 13518.722 0 0 1-6-116 85.624 85.624 0 0 1 5.5 15c.502 1.021 1.168 1.188 2 .5a15.256 15.256 0 0 0 1.5-4.5c.718-.951 1.551-1.117 2.5-.5 10.362 10.075 15.029 22.409 14 37a358.741 358.741 0 0 0-1.5 38.5 51.747 51.747 0 0 1 6 17c.365 9.681.365 19.348 0 29a1309.527 1309.527 0 0 1 22 68c3.694 10.389 8.694 20.056 15 29a80.601 80.601 0 0 1 17.5 3.5 7481.931 7481.931 0 0 0 22 14 28979.63 28979.63 0 0 0 17 5 36.677 36.677 0 0 1 12 8 523.555 523.555 0 0 1 13 17.5 110.86 110.86 0 0 0 17.5 13 20.64 20.64 0 0 1 2 6c.089 8.742.756 17.409 2 26l1.5 1.5c4.998-.355 9.164 1.145 12.5 4.5 1.622 14.29 9.622 21.62 24 22 11.99-2 23.99-4 36-6 4.246.38 8.079 1.72 11.5 4z"/>
    <path style="opacity:1" fill="#271b16" d="M664.5 927.5a818.253 818.253 0 0 1-29.5 45c-5.34 6.42-12.174 9.754-20.5 10 .076 3.729 1.243 7.062 3.5 10a134.925 134.925 0 0 1 12 10c-1.023 10.75 1.144 20.75 6.5 30-.363.68-.696 1.35-1 2-2.121-.17-4.121.16-6 1-16.127 2.69-32.127 5.35-48 8h-3a654.004 654.004 0 0 0-50 8h-2a372.956 372.956 0 0 0-29 5 634.133 634.133 0 0 1-51.5-4 95.23 95.23 0 0 0-24.5 4c-23.188-1.95-44.855 2.88-65 14.5a537.411 537.411 0 0 0-62 48 274.963 274.963 0 0 1-22.5 15.5c-2.388-9.95-7.221-18.45-14.5-25.5a1902.79 1902.79 0 0 1-44-25 479.965 479.965 0 0 0-22.5-29.5 349.147 349.147 0 0 1-38-39 168.124 168.124 0 0 1-9-15 112.97 112.97 0 0 1-.5-15v-11c2.127-8.397 3.294-17.064 3.5-26 6.167 7.5 13 14.333 20.5 20.5a690.652 690.652 0 0 0 38 23 227.233 227.233 0 0 0 37 24c12.627 4.31 25.294 8.64 38 13a400.179 400.179 0 0 0 21 2.5 395.177 395.177 0 0 0 85-14 1691.951 1691.951 0 0 1 105-22c16.3-1.659 32.3-4.325 48-8a1182.623 1182.623 0 0 1 33-7c7.668-1.557 15.001-3.891 22-7a504.305 504.305 0 0 0 28-11.5c17.254-9.252 29.587-22.919 37-41 2.793.994 4.46 3.161 5 6.5z"/>
    <path style="opacity:1" fill="#3e3734" d="M664.5 927.5c3.574 4.136 6.408 8.803 8.5 14 13.172 32.358 20.339 66.02 21.5 101v4c-3.609-2.48-7.276-4.98-11-7.5a12.44 12.44 0 0 0-7 0 74.518 74.518 0 0 1-12.5 6.5c-6.852-1.86-13.019-5.02-18.5-9.5a24.329 24.329 0 0 0-10-1.5c.304-.65.637-1.32 1-2-5.356-9.25-7.523-19.25-6.5-30a134.925 134.925 0 0 0-12-10c-2.257-2.938-3.424-6.271-3.5-10 8.326-.246 15.16-3.58 20.5-10a818.253 818.253 0 0 0 29.5-45z"/>
    <path style="opacity:1" fill="#615856" d="M606.5 995.5c3.264 1.427 5.764 3.761 7.5 7a99.385 99.385 0 0 1 9.5 25 439.14 439.14 0 0 1-35 7c-5.962.56-11.129-1.11-15.5-5-2.05 2.65-3.216 5.65-3.5 9-6.903-.49-9.403-4.16-7.5-11a9.39 9.39 0 0 1 1.5-2.5 53.065 53.065 0 0 1 10.5-3.5 19.728 19.728 0 0 0 1.5-6.5c-1.041-16.326 5.959-20.993 21-14 2.667.67 5.333.67 8 0 1.361-1.584 2.028-3.418 2-5.5z"/>
    <path style="opacity:1" fill="#b3907b" d="M143.5 985.5a112.97 112.97 0 0 0 .5 15 168.124 168.124 0 0 0 9 15 349.147 349.147 0 0 0 38 39 479.965 479.965 0 0 1 22.5 29.5 1902.79 1902.79 0 0 0 44 25c7.279 7.05 12.112 15.55 14.5 25.5 7.761-4.8 15.261-9.96 22.5-15.5a537.411 537.411 0 0 1 62-48c20.145-11.62 41.812-16.45 65-14.5-42.384 12.35-79.051 34.19-110 65.5-14.249 9.64-26.415 21.47-36.5 35.5a337.92 337.92 0 0 0-26 42c-4.5 3.83-9 7.67-13.5 11.5-11.533 12.7-23.533 24.87-36 37h-105c13.021-64.77 25.855-129.11 38.5-193.5a737.242 737.242 0 0 0 10.5-69z"/>
    <path style="opacity:1" fill="#d4b8aa" d="M635.5 1034.5c3.441-.2 6.774.3 10 1.5 5.481 4.48 11.648 7.64 18.5 9.5a74.518 74.518 0 0 0 12.5-6.5 12.44 12.44 0 0 1 7 0c3.724 2.52 7.391 5.02 11 7.5-4.855 50.25-5.188 100.59-1 151-4.67-8.66-7.503-17.99-8.5-28a451.674 451.674 0 0 1 3-75c.667-9.33.667-18.67 0-28-1.483-4.17-4.316-5.67-8.5-4.5-1.833 1.83-3.667 3.67-5.5 5.5-4.113 9.25-9.447 17.59-16 25a45.869 45.869 0 0 0 2.5 13c-7.277 1.76-13.111 5.76-17.5 12a432.922 432.922 0 0 1-16 23c-17.632 11.67-33.299 25.67-47 42-13.576 17.24-28.909 32.91-46 47-4.457 4.58-7.624 9.92-9.5 18.5h6-260c4.537 0 8.037-13.91 10.5-21.5 1.1-9.08 2.6-18.08 4.5-27 1.855 3.56 3.522 7.22 5 11a25.553 25.553 0 0 0 4.5-4 1125.788 1125.788 0 0 1 22-39 1731.391 1731.391 0 0 1 50.5-61 405.392 405.392 0 0 0 57-24.5 105.617 105.617 0 0 1 34-8c13.09-5.88 26.09-11.72 39-17.5 10.036-.29 19.703-1.95 29-5h2a411.338 411.338 0 0 0 50-8h3c9.709-.74 19.375-1.91 29-3.5 6.646-.82 12.979-2.32 19-4.5 1.879-.84 3.879-1.17 6-1z"/>
    <path style="opacity:1" fill="#c8a692" d="M497.5 1056.5c-12.91 5.78-25.91 11.62-39 17.5a105.617 105.617 0 0 0-34 8 405.392 405.392 0 0 1-57 24.5 1731.391 1731.391 0 0 0-50.5 61 1125.788 1125.788 0 0 0-22 39 25.553 25.553 0 0 1-4.5 4 112.153 112.153 0 0 0-5-11c-1.9 8.92-3.4 17.92-4.5 27-2.463 7.59-5.963 21.5-10.5 21.5h-71c12.467-12.13 24.467-24.3 36-37 4.5-3.83 9-7.67 13.5-11.5a337.92 337.92 0 0 1 26-42c10.085-14.03 22.251-25.86 36.5-35.5 30.949-31.31 67.616-53.15 110-65.5a95.23 95.23 0 0 1 24.5-4 634.133 634.133 0 0 0 51.5 4z"/>
    <path style="opacity:1" fill="#be9b86" d="M693.5 1197.5a70.326 70.326 0 0 1 5 21.5c-1.149 9.94-3.815 19.44-8 29h-166c1.876-8.58 5.043-13.92 9.5-18.5 17.091-14.09 32.424-29.76 46-47 13.701-16.33 29.368-30.33 47-42a432.922 432.922 0 0 0 16-23c4.389-6.24 10.223-10.24 17.5-12a45.869 45.869 0 0 1-2.5-13c6.553-7.41 11.887-15.75 16-25 1.833-1.83 3.667-3.67 5.5-5.5 4.184-1.17 7.017.33 8.5 4.5.667 9.33.667 18.67 0 28a451.674 451.674 0 0 0-3 75c.997 10.01 3.83 19.34 8.5 28z"/>
</svg>